PathFileType  4	(X/Y/Z) C:\Users\antoi\Documents\MyRepositories\mobilecap\ResultsAnalysis
DataRate	CameraRate	NumFrames	NumMarkers	Units	OrigDataRate	OrigDataStartFrame	OrigNumFrames
100.0	100.0	4	51	mm	100.0	1	138
Frame#	Time	r_knee			r_shank_antsup			r_ankle			r_calc			r_5meta			r_toe			L_knee			L_shank_antsup			L_ankle			L_calc			L_5meta			L_toe			r_sh2			r_sh3			r_sh4			L_sh2			L_sh3			r_thigh1			r_thigh2			r_thigh3			r_thigh4			r_thigh5			L_thigh1			L_thigh2			L_thigh3			L_thigh4			r.ASIS			r.PSIS			L.ASIS			L.PSIS			C7			R_Shoulder			L_Shoulder			R_Sternum			L_Sternum			R_humerus			R_elbow_med			R_elbow_lat			R_forearm			R_wrist_radius			R_wrist_ulna			L_humerus			L_elbow_med			L_elbow_lat			L_forearm			L_wrist_radius			L_wrist_ulna			R_HJC			L_HJC			R_HJC_reg			L_HJC_reg			
		X1	Y1	Z1	X2	Y2	Z2	X3	Y3	Z3	X4	Y4	Z4	X5	Y5	Z5	X6	Y6	Z6	X7	Y7	Z7	X8	Y8	Z8	X9	Y9	Z9	X10	Y10	Z10	X11	Y11	Z11	X12	Y12	Z12	X13	Y13	Z13	X14	Y14	Z14	X15	Y15	Z15	X16	Y16	Z16	X17	Y17	Z17	X18	Y18	Z18	X19	Y19	Z19	X20	Y20	Z20	X21	Y21	Z21	X22	Y22	Z22	X23	Y23	Z23	X24	Y24	Z24	X25	Y25	Z25	X26	Y26	Z26	X27	Y27	Z27	X28	Y28	Z28	X29	Y29	Z29	X30	Y30	Z30	X31	Y31	Z31	X32	Y32	Z32	X33	Y33	Z33	X34	Y34	Z34	X35	Y35	Z35	X36	Y36	Z36	X37	Y37	Z37	X38	Y38	Z38	X39	Y39	Z39	X40	Y40	Z40	X41	Y41	Z41	X42	Y42	Z42	X43	Y43	Z43	X44	Y44	Z44	X45	Y45	Z45	X46	Y46	Z46	X47	Y47	Z47	X48	Y48	Z48	X49	Y49	Z49	X50	Y50	Z50	X51	Y51	Z51	

1	0.00000000	-34.94521	539.68913	-142.58351	33.51758	434.97164	-150.02910	66.60819	92.99118	-170.82522	24.25550	45.34341	-226.60847	218.60758	71.98854	-114.89021	242.08206	120.38501	-177.21012	-400.50581	529.57066	-456.12307	-407.54743	415.02410	-431.36512	-638.04463	141.85940	-414.47645	-711.21576	136.47566	-367.91075	-524.59836	33.25025	-432.22272	-493.11479	48.72119	-361.51972	75.01773	330.16427	-171.42051	-27.18188	401.86382	-109.76482	21.42425	294.44294	-117.27571	-480.60753	445.05021	-478.00075	-510.80087	327.73541	-480.79543	-47.67583	787.55890	-162.20534	-0.83127	688.04809	-176.97119	-11.56152	648.93813	-121.14564	-114.33336	744.79881	-82.13333	-65.12518	637.78194	-106.33126	-237.27359	743.67950	-483.37960	-272.62633	612.89956	-469.91890	-344.31874	766.96449	-510.64092	-380.98928	635.14135	-484.56613	-157.29995	1001.14114	-155.88173	-362.88075	1032.78808	-241.02090	-147.82602	1000.40640	-426.61517	-362.25364	1040.91913	-337.18729	-293.16482	1532.96744	-283.31596	-240.49677	1453.92610	-94.43413	-203.63874	1489.63800	-455.23383	-154.88456	1452.92345	-248.56979	-152.62414	1453.23986	-295.73823	-256.00925	1282.48318	-27.46750	-350.60670	1073.06325	-87.37938	-339.95607	1093.12688	-7.67361	-263.20661	937.60689	13.90834	-245.23557	815.93150	25.01668	-281.26312	811.08291	48.63360	-174.81237	1325.79788	-542.52887	-226.94612	1100.18755	-529.57391	-185.11695	1128.22405	-593.22577	-42.06488	1062.41091	-524.01820	51.56707	987.78629	-516.40630	36.89932	965.90326	-557.14992	-238.10769	920.66020	-193.77722	-233.45046	912.60875	-406.96481	-224.62715	908.59636	-202.46807	-223.46494	923.66053	-380.62347	
2	0.01000000	-20.67654	539.33844	-141.35262	48.18157	433.87981	-149.41903	73.12705	92.13702	-170.56714	27.94904	48.25411	-226.93298	222.18060	63.53626	-115.49911	249.07066	110.56116	-177.69280	-384.42794	528.04343	-455.07174	-394.24888	413.12832	-430.96140	-633.01329	147.24619	-414.60766	-705.99750	144.59940	-367.60080	-523.64527	33.25416	-432.05894	-491.73154	48.49707	-361.68115	87.89985	328.52085	-171.12935	-12.82788	401.70240	-109.11299	33.88983	293.59961	-116.91450	-466.56924	445.64034	-477.04571	-500.56738	329.42658	-480.21389	-30.52262	786.39705	-157.26344	15.03262	686.02687	-172.76293	1.89693	646.30167	-117.97018	-101.09225	743.06726	-81.00932	-52.44987	636.43195	-104.99728	-221.49169	742.25036	-482.12074	-256.57838	611.20769	-468.61471	-328.71250	765.44850	-508.73000	-365.00807	633.45853	-482.78562	-141.57248	1001.66130	-154.18847	-347.24310	1031.72411	-239.42059	-132.92931	998.56360	-424.74039	-346.56927	1038.85298	-335.57265	-278.89010	1532.16727	-280.43742	-226.33628	1452.35136	-91.67392	-189.15609	1488.83471	-452.52195	-140.52334	1452.08390	-245.75210	-138.03714	1452.52973	-292.96761	-241.35166	1280.59358	-25.35623	-335.20271	1070.98219	-85.90069	-324.64153	1090.92724	-6.19901	-247.65348	935.36064	14.96933	-229.70254	813.70906	25.72679	-265.69372	808.81122	49.50226	-161.97507	1324.25547	-539.90942	-216.37064	1099.16699	-526.54433	-174.64169	1126.81635	-590.36665	-32.42824	1058.58860	-521.91710	59.87643	982.42432	-514.95146	44.91424	960.99984	-555.78555	-222.06827	920.52749	-191.22209	-217.72073	910.52823	-404.31679	-208.95191	908.67296	-199.84719	-207.70154	921.88339	-378.01576	
3	0.02000000	-6.19386	539.24934	-140.02996	62.83741	432.87353	-148.93349	79.26772	91.41969	-170.30515	31.46658	51.04591	-227.18410	225.43749	55.69338	-115.99043	255.57544	101.22157	-178.12265	-367.75954	526.52167	-454.15472	-380.40926	411.30915	-430.82354	-627.38993	152.82874	-414.74578	-700.04132	153.11166	-367.15517	-522.62165	33.30740	-431.87269	-490.22449	48.15074	-361.80676	100.62268	326.94936	-170.92273	1.69947	401.76019	-108.36128	46.31452	292.90553	-116.47911	-452.00584	446.38682	-476.11140	-489.85055	331.35380	-479.72723	-13.57477	785.54333	-152.31769	30.77205	684.40332	-168.59435	15.51309	644.10487	-114.76207	-87.63092	741.66052	-79.57682	-39.54663	635.42846	-103.44804	-205.37999	740.98515	-480.84985	-240.03522	609.61264	-467.40432	-312.80722	763.94134	-506.73163	-348.56822	631.74726	-481.02287	-125.81108	1002.31487	-152.54717	-331.59330	1030.96468	-237.82232	-118.05347	996.89231	-422.86793	-330.85143	1037.08506	-334.00757	-264.59856	1531.55839	-277.55190	-212.16978	1451.02296	-88.90199	-174.67043	1488.29796	-449.78401	-126.14825	1451.50016	-242.91945	-123.45214	1452.06733	-290.17487	-226.65491	1278.95651	-23.22048	-319.70566	1069.13951	-84.45747	-309.27431	1088.96426	-4.74159	-232.04541	933.36817	16.01951	-214.05733	811.74526	26.42704	-250.01186	806.79333	50.34538	-149.13406	1322.98835	-537.27670	-205.87139	1098.47689	-523.41785	-164.22287	1125.67431	-587.44316	-22.90671	1054.85351	-519.85742	67.94396	977.03483	-513.63206	52.59661	956.08685	-554.54363	-206.07722	920.59807	-188.70854	-202.05979	908.67327	-401.70710	-193.36243	908.98698	-197.27501	-191.98670	920.32755	-375.42026	
4	0.03000000	8.65022	539.60111	-138.55008	77.41332	431.99490	-148.61802	84.73938	90.93628	-170.05569	34.65491	53.61696	-227.32515	228.15042	48.96901	-116.29597	261.22568	92.76966	-178.49386	-349.98507	524.98305	-453.50187	-365.54136	409.61852	-431.18365	-620.63758	158.77390	-414.91201	-692.69721	162.34897	-366.49647	-521.45299	33.48868	-431.64987	-488.49973	47.62704	-361.86270	113.00082	325.48550	-170.84423	16.43512	402.16086	-107.44928	58.57997	292.44441	-115.92343	-436.44383	447.39973	-475.23174	-478.20469	333.69339	-479.43664	3.05029	785.27839	-147.41220	46.35459	683.53424	-164.51612	29.45651	642.72762	-111.52048	-73.76003	740.85713	-77.65480	-26.18118	635.04906	-101.55332	-188.67042	740.00644	-479.56987	-222.56920	608.18570	-466.38371	-296.35151	762.42189	-504.60270	-331.27207	629.95475	-479.34071	-110.01500	1003.22777	-150.97116	-315.93692	1030.72598	-236.24270	-103.17523	995.55316	-420.98333	-315.08552	1035.84759	-332.54180	-250.27861	1531.28576	-274.65386	-197.98641	1450.13535	-86.11165	-160.17328	1488.23788	-447.00113	-111.74676	1451.36461	-240.06285	-108.87147	1452.03938	-287.34483	-211.88735	1277.77477	-21.04281	-304.04718	1067.73106	-83.07433	-293.81687	1087.42908	-3.31174	-216.32443	931.83965	17.05459	-198.20002	810.25384	27.11518	-234.11935	805.23580	51.14651	-136.29071	1322.22242	-534.63376	-195.50257	1098.38467	-520.12270	-153.90312	1125.01602	-584.41110	-13.59797	1051.27773	-517.88072	75.57055	971.60426	-512.56323	59.68466	951.16620	-553.52932	-190.17796	921.03699	-186.26480	-186.48368	907.23589	-399.16076	-177.90044	909.70264	-194.78648	-176.32687	919.18449	-372.85067	
